<?xml version="1.0" encoding="utf-8"?>
<!-- Generator: Adobe Illustrator 24.0.2, SVG Export Plug-In . SVG Version: 6.00 Build 0)  -->
<svg version="1.1" id="Capa_1" xmlns="http://www.w3.org/2000/svg" xmlns:xlink="http://www.w3.org/1999/xlink" x="0px" y="0px"
	 viewBox="0 0 850.4 331.5" style="enable-background:new 0 0 850.4 331.5;" xml:space="preserve">
<style type="text/css">
	.st0{fill:#434041;}
</style>
<g>
	<g>
		<path class="st0" d="M378.5,9.1v26.4h29.4v7.7h-29.4v27h32.7v8.1h-42.7V1h42.7v8.1L378.5,9.1L378.5,9.1z"/>
		<path class="st0" d="M469.3,60.5h-34l-6.5,17.9h-10.8l28.6-75.9H458l28.5,75.9h-10.8L469.3,60.5z M466.5,52.7l-14.2-39.1
			l-14.1,39.1L466.5,52.7L466.5,52.7z"/>
		<path class="st0" d="M542.9,68.5c-1.8,3.1-4.4,5.7-8,7.7c-3.6,2-8,3-13.3,3c-5.1,0-9.7-0.9-13.7-2.8c-4-1.9-7.2-4.4-9.5-7.7
			c-2.4-3.3-3.8-7-4.1-11.1H505c0.2,2.2,1,4.3,2.2,6.4c1.3,2.1,3.1,3.8,5.5,5.2c2.4,1.4,5.2,2,8.6,2c4.4,0,7.7-1.2,10.1-3.5
			c2.4-2.3,3.5-5.3,3.5-9c0-3.1-0.8-5.7-2.5-7.7c-1.6-2-3.7-3.5-6.1-4.7c-2.4-1.1-5.7-2.4-9.9-3.7c-4.9-1.6-8.8-3.1-11.8-4.6
			c-3-1.4-5.5-3.6-7.6-6.4C495,28.7,494,25,494,20.3c0-4,1-7.6,2.9-10.6c1.9-3.1,4.7-5.5,8.3-7.1C508.9,0.8,513.1,0,518,0
			c7.6,0,13.6,1.9,18.1,5.5c4.5,3.7,7,8.4,7.8,14.1h-10.8c-0.6-3.1-2.2-5.8-4.7-8.1c-2.6-2.3-6-3.5-10.4-3.5c-4,0-7.2,1-9.7,3.1
			c-2.4,2.1-3.6,5-3.6,8.8c0,3,0.8,5.4,2.4,7.3c1.6,1.9,3.5,3.3,5.9,4.4c2.3,1.1,5.6,2.2,9.6,3.6c5,1.6,9,3.1,12,4.6
			c3,1.5,5.6,3.7,7.7,6.6c2.1,3,3.2,6.9,3.2,11.8C545.6,61.9,544.7,65.3,542.9,68.5z"/>
		<path class="st0" d="M619.4,60.1c-3.1,5.8-7.8,10.3-13.9,13.5c-6.1,3.2-13.4,4.8-22,4.8H559V1h24.6c8.6,0,15.9,1.5,22,4.7
			c6.1,3.1,10.7,7.6,13.9,13.4c3.1,5.8,4.7,12.7,4.7,20.6C624.1,47.4,622.6,54.3,619.4,60.1z M605.9,61.6c5.3-5.2,8-12.5,8-21.9
			s-2.7-16.8-8-22c-5.3-5.2-13-7.8-23.2-7.8h-13.8v59.6h13.8C592.9,69.4,600.6,66.8,605.9,61.6z"/>
		<path class="st0" d="M427.3,113.1c6.3,4.8,10.2,11.2,11.7,19.3h-19.9c-1.3-2.8-3.3-5-6-6.6c-2.7-1.6-6-2.5-9.8-2.5
			c-5.9,0-10.7,2-14.3,6c-3.6,4-5.4,9.4-5.4,16.2c0,7.4,1.9,13.1,5.7,17s9.1,5.9,16.1,5.9c4.5,0,8.4-1.2,11.7-3.7
			c3.4-2.4,5.7-5.9,7.1-10.5h-23.7v-13.5h39.4v18.6c-1.5,4.5-3.8,8.8-7,12.6c-3.2,3.9-7.3,7-12.3,9.4c-5,2.4-10.7,3.6-17.2,3.6
			c-7.8,0-14.7-1.7-20.5-5c-5.8-3.3-10.4-8-13.6-14c-3.2-6-4.8-12.8-4.8-20.5c0-7.7,1.6-14.5,4.8-20.5c3.2-6,7.7-10.7,13.5-14
			c5.8-3.3,12.6-5,20.4-5C413,106,421,108.3,427.3,113.1z"/>
		<path class="st0" d="M478.4,125.7c3.7-2.2,7.7-3.3,12-3.3v20.1H485c-5,0-8.8,1.1-11.6,3.2c-2.7,2.1-4.1,5.7-4.1,10.7v27.9h-18.8
			V123h18.8v11.5C471.7,130.9,474.7,127.9,478.4,125.7z"/>
		<path class="st0" d="M533.6,125.5c3.4,2.1,5.8,5,7.5,8.7v-11.1h18.6v61.2h-18.6v-11.1c-1.6,3.6-4.1,6.5-7.5,8.7
			c-3.4,2.1-7.4,3.2-12.1,3.2c-5,0-9.6-1.3-13.6-3.8c-4-2.5-7.1-6.2-9.4-10.9s-3.5-10.3-3.5-16.7c0-6.4,1.2-12,3.5-16.7
			c2.3-4.7,5.4-8.3,9.4-10.9c4-2.5,8.5-3.8,13.6-3.8C526.3,122.3,530.3,123.4,533.6,125.5z M517.9,142.7c-2.4,2.6-3.7,6.3-3.7,11
			s1.2,8.3,3.7,11c2.4,2.6,5.7,4,9.7,4c4,0,7.2-1.4,9.7-4.1s3.8-6.3,3.8-10.8c0-4.6-1.3-8.2-3.8-10.9c-2.5-2.7-5.8-4-9.7-4
			C523.6,138.8,520.3,140.1,517.9,142.7z"/>
		<path class="st0" d="M628.3,129.4c4.1,4.7,6.2,11.1,6.2,19.3v35.6h-18.8v-33.3c0-4.1-1.1-7.3-3.2-9.6c-2.2-2.3-5-3.5-8.6-3.5
			c-3.8,0-6.8,1.2-9.1,3.6c-2.2,2.4-3.3,5.8-3.3,10.3v32.5h-18.8v-61.2h18.8v11.2c1.8-3.7,4.4-6.5,7.8-8.7c3.5-2.1,7.6-3.2,12.2-3.2
			C618.5,122.4,624.1,124.7,628.3,129.4z"/>
		<path class="st0" d="M426.9,219.7c6.5,5.2,10.7,12.2,12.6,21.1h-19.9c-1.5-3.6-3.7-6.4-6.7-8.4c-3-2-6.6-3.1-10.8-3.1
			c-5.5,0-9.9,2-13.3,6c-3.4,4-5,9.4-5,16.1c0,6.7,1.7,12.1,5,16.1c3.4,4,7.8,6,13.3,6c4.2,0,7.8-1,10.8-3.1c3-2,5.3-4.8,6.7-8.3
			h19.9c-1.9,8.8-6.1,15.8-12.6,21c-6.5,5.2-14.6,7.8-24.5,7.8c-7.5,0-14.1-1.7-19.9-5c-5.7-3.3-10.1-8-13.2-14
			c-3.1-6-4.7-12.8-4.7-20.5c0-7.7,1.5-14.5,4.7-20.5c3.1-6,7.5-10.7,13.2-14s12.3-5,19.9-5C412.3,211.9,420.5,214.5,426.9,219.7z"
			/>
		<path class="st0" d="M485.4,231.4c3.4,2.1,5.8,5,7.5,8.7V229h18.6v61.2h-18.6v-11.1c-1.6,3.7-4.1,6.5-7.5,8.7
			c-3.4,2.1-7.4,3.2-12.1,3.2c-5,0-9.6-1.3-13.6-3.8c-4-2.5-7.1-6.2-9.4-10.9c-2.3-4.8-3.4-10.3-3.4-16.7c0-6.4,1.2-12,3.4-16.7
			c2.3-4.7,5.5-8.3,9.4-10.9s8.5-3.8,13.6-3.8C478,228.2,482,229.3,485.4,231.4z M469.6,248.6c-2.5,2.6-3.7,6.3-3.7,11
			c0,4.7,1.2,8.3,3.7,11c2.4,2.6,5.7,4,9.7,4c4,0,7.2-1.4,9.7-4.1c2.5-2.7,3.8-6.3,3.8-10.8c0-4.6-1.3-8.2-3.8-10.9
			c-2.5-2.7-5.8-4-9.7-4C475.3,244.7,472.1,246,469.6,248.6z"/>
		<path class="st0" d="M580,235.4c4.1,4.7,6.2,11.1,6.2,19.3v35.6h-18.8v-33.4c0-4.1-1.1-7.3-3.2-9.6c-2.2-2.3-5-3.4-8.6-3.4
			c-3.8,0-6.8,1.2-9.1,3.6c-2.2,2.4-3.3,5.9-3.3,10.3v32.5h-18.8V229h18.8v11.2c1.8-3.6,4.4-6.5,7.8-8.7c3.5-2.1,7.6-3.2,12.2-3.2
			C570.3,228.3,575.9,230.7,580,235.4z"/>
		<path class="st0" d="M633.9,231.4c3.4,2.1,5.8,5,7.5,8.7V229H660v61.2h-18.6v-11.1c-1.6,3.7-4.1,6.5-7.5,8.7
			c-3.4,2.1-7.4,3.2-12.1,3.2c-5,0-9.6-1.3-13.6-3.8c-4-2.5-7.1-6.2-9.4-10.9c-2.3-4.8-3.4-10.3-3.4-16.7c0-6.4,1.1-12,3.4-16.7
			c2.3-4.7,5.5-8.3,9.4-10.9s8.5-3.8,13.6-3.8C626.5,228.2,630.5,229.3,633.9,231.4z M618.2,248.6c-2.5,2.6-3.7,6.3-3.7,11
			c0,4.7,1.2,8.3,3.7,11c2.4,2.6,5.7,4,9.7,4c4,0,7.2-1.4,9.7-4.1c2.5-2.7,3.8-6.3,3.8-10.8c0-4.6-1.3-8.2-3.8-10.9
			c-2.5-2.7-5.8-4-9.7-4C623.8,244.7,620.6,246,618.2,248.6z"/>
		<path class="st0" d="M700.8,231.6c3.7-2.2,7.7-3.3,12-3.3v20.1h-5.4c-5,0-8.8,1-11.6,3.2c-2.7,2.1-4.1,5.7-4.1,10.8v27.9H673V229
			h18.8v11.5C694.1,236.8,697.1,233.8,700.8,231.6z"/>
		<path class="st0" d="M722,204.7c2.1-1.9,4.8-2.8,8.1-2.8c3.4,0,6.1,0.9,8.1,2.8c2,1.9,3.1,4.2,3.1,7.1c0,2.8-1,5.1-3.1,7
			c-2.1,1.9-4.8,2.8-8.1,2.8c-3.4,0-6.1-0.9-8.1-2.8c-2.1-1.9-3.1-4.2-3.1-7C718.9,208.9,720,206.6,722,204.7z M739.4,229v61.2
			h-18.7V229H739.4z"/>
		<path class="st0" d="M787.7,231.4c3.4,2.1,5.8,5,7.5,8.7V229h18.6v61.2h-18.6v-11.1c-1.6,3.7-4.1,6.5-7.5,8.7
			c-3.4,2.1-7.4,3.2-12.1,3.2c-5.1,0-9.6-1.3-13.6-3.8c-4-2.5-7.1-6.2-9.4-10.9c-2.3-4.8-3.4-10.3-3.4-16.7c0-6.4,1.1-12,3.4-16.7
			c2.3-4.7,5.5-8.3,9.4-10.9s8.5-3.8,13.6-3.8C780.3,228.2,784.3,229.3,787.7,231.4z M772,248.6c-2.4,2.6-3.7,6.3-3.7,11
			c0,4.7,1.2,8.3,3.7,11c2.4,2.6,5.7,4,9.7,4c4,0,7.2-1.4,9.7-4.1c2.5-2.7,3.8-6.3,3.8-10.8c0-4.6-1.3-8.2-3.8-10.9
			c-2.5-2.7-5.8-4-9.7-4C777.7,244.7,774.4,246,772,248.6z"/>
		<path class="st0" d="M850.4,271.5v18.8H831v-18.8H850.4z"/>
	</g>
</g>
<path class="st0" d="M190.3,331.5l25.4-49h61.5h5.1v-5.1V5.4V0.4h-5.1H5.1H0v5.1v272.1v5.1h5.1h162.8L190.3,331.5z M246.5,246.8
	h-5.3h-39H185h-8.6h-14.9h-42.1H35.7V36.1h210.7V246.8z"/>
</svg>
